<svg width="16" height="16" viewBox="0 0 16 16" fill="none" xmlns="http://www.w3.org/2000/svg">
<path d="M0.100059 7.49258C0.163544 7.32905 0.258739 7.17965 0.380177 7.05295L7.04961 0.391769C7.17398 0.267553 7.32163 0.16902 7.48413 0.101795C7.64662 0.0345702 7.82079 -3.05176e-05 7.99667 -3.05176e-05C8.35189 -3.05176e-05 8.69256 0.140904 8.94373 0.391769C9.0681 0.515984 9.16676 0.66345 9.23407 0.825746C9.30138 0.988041 9.33602 1.16199 9.33602 1.33766C9.33602 1.69243 9.19491 2.03268 8.94373 2.28354L4.5419 6.6666H14.6661C15.0199 6.6666 15.3592 6.80696 15.6093 7.0568C15.8595 7.30664 16 7.6455 16 7.99883C16 8.35216 15.8595 8.69102 15.6093 8.94087C15.3592 9.19071 15.0199 9.33107 14.6661 9.33107H4.5419L8.94373 13.7141C9.06876 13.838 9.16799 13.9853 9.23571 14.1477C9.30343 14.31 9.3383 14.4841 9.3383 14.66C9.3383 14.8359 9.30343 15.01 9.23571 15.1724C9.16799 15.3347 9.06876 15.482 8.94373 15.6059C8.81973 15.7308 8.6722 15.8299 8.50966 15.8975C8.34711 15.9651 8.17276 16 7.99667 16C7.82059 16 7.64624 15.9651 7.48369 15.8975C7.32115 15.8299 7.17362 15.7308 7.04961 15.6059L0.380177 8.94472C0.258739 8.81802 0.163544 8.66862 0.100059 8.50508C-0.0333538 8.18073 -0.0333538 7.81693 0.100059 7.49258Z" fill="#001B33" fill-opacity="0.8"/>
</svg>
