<svg width="6" height="18" viewBox="0 0 6 18" fill="none" xmlns="http://www.w3.org/2000/svg">
<path d="M3.5917 10.075C3.51245 9.99909 3.41899 9.93962 3.3167 9.89996C3.11382 9.81661 2.88625 9.81661 2.68337 9.89996C2.58107 9.93962 2.48762 9.99909 2.40837 10.075L0.325032 12.1583C0.168112 12.3152 0.0799561 12.528 0.0799561 12.75C0.0799561 12.9719 0.168112 13.1847 0.325032 13.3416C0.481952 13.4985 0.694781 13.5867 0.916699 13.5867C1.13862 13.5867 1.35145 13.4985 1.50837 13.3416L2.1667 12.675V16.5C2.1667 16.721 2.2545 16.9329 2.41078 17.0892C2.56706 17.2455 2.77902 17.3333 3.00003 17.3333C3.22105 17.3333 3.43301 17.2455 3.58929 17.0892C3.74557 16.9329 3.83337 16.721 3.83337 16.5V12.675L4.4917 13.3416C4.56917 13.4197 4.66134 13.4817 4.76289 13.524C4.86444 13.5663 4.97336 13.5881 5.08337 13.5881C5.19338 13.5881 5.3023 13.5663 5.40385 13.524C5.5054 13.4817 5.59756 13.4197 5.67503 13.3416C5.75314 13.2642 5.81514 13.172 5.85744 13.0704C5.89975 12.9689 5.92153 12.86 5.92153 12.75C5.92153 12.6399 5.89975 12.531 5.85744 12.4295C5.81514 12.3279 5.75314 12.2358 5.67503 12.1583L3.5917 10.075ZM2.40837 7.92496C2.48762 8.00083 2.58107 8.0603 2.68337 8.09996C2.78312 8.14405 2.89097 8.16682 3.00003 8.16682C3.10909 8.16682 3.21695 8.14405 3.3167 8.09996C3.41899 8.0603 3.51245 8.00083 3.5917 7.92496L5.67503 5.84163C5.75273 5.76393 5.81437 5.67169 5.85642 5.57017C5.89847 5.46865 5.92011 5.35984 5.92011 5.24996C5.92011 5.14008 5.89847 5.03127 5.85642 4.92975C5.81437 4.82823 5.75273 4.73599 5.67503 4.65829C5.59733 4.58059 5.50509 4.51896 5.40357 4.47691C5.30206 4.43486 5.19325 4.41322 5.08337 4.41322C4.97348 4.41322 4.86468 4.43486 4.76316 4.47691C4.66164 4.51896 4.5694 4.58059 4.4917 4.65829L3.83337 5.32496V1.49996C3.83337 1.27895 3.74557 1.06698 3.58929 0.910704C3.43301 0.754423 3.22105 0.666626 3.00003 0.666626C2.77902 0.666626 2.56706 0.754423 2.41078 0.910704C2.2545 1.06698 2.1667 1.27895 2.1667 1.49996V5.32496L1.50837 4.65829C1.43067 4.58059 1.33843 4.51896 1.23691 4.47691C1.13539 4.43486 1.02658 4.41322 0.916699 4.41322C0.694781 4.41322 0.481952 4.50137 0.325032 4.65829C0.247333 4.73599 0.185699 4.82823 0.143649 4.92975C0.101599 5.03127 0.0799561 5.14008 0.0799561 5.24996C0.0799561 5.47188 0.168112 5.68471 0.325032 5.84163L2.40837 7.92496Z" fill="#0085FF"/>
</svg>
