<svg width="25" height="12" viewBox="0 0 25 12" fill="none" xmlns="http://www.w3.org/2000/svg">
<rect width="25" height="12" rx="4" fill="#E6F3FF"/>
<path d="M9 4.55019C9 4.85405 9.24633 5.10037 9.55019 5.10037H15.4498C15.7537 5.10037 16 4.85405 16 4.55019V4.55019C16 4.24633 15.7537 4 15.4498 4H9.55019C9.24633 4 9 4.24633 9 4.55019V4.55019ZM9 7.44981C9 7.75367 9.24633 8 9.55019 8H15.4498C15.7537 8 16 7.75367 16 7.44981V7.44981C16 7.14595 15.7537 6.89963 15.4498 6.89963H9.55019C9.24633 6.89963 9 7.14595 9 7.44981V7.44981Z" fill="#0085FF" stroke="#0085FF" stroke-width="0.4"/>
</svg>
