<svg width="8" height="14" viewBox="0 0 8 14" fill="none" xmlns="http://www.w3.org/2000/svg">
<path d="M6.19334 9.86001L4.66667 11.3933V2.60668L6.19334 4.14001C6.25531 4.2025 6.32904 4.25209 6.41028 4.28594C6.49152 4.31979 6.57866 4.33721 6.66667 4.33721C6.75468 4.33721 6.84181 4.31979 6.92305 4.28594C7.00429 4.25209 7.07803 4.2025 7.14 4.14001C7.20249 4.07804 7.25208 4.0043 7.28593 3.92306C7.31978 3.84182 7.3372 3.75469 7.3372 3.66668C7.3372 3.57867 7.31978 3.49153 7.28593 3.4103C7.25208 3.32906 7.20249 3.25532 7.14 3.19335L4.47334 0.526679C4.40993 0.465985 4.33517 0.418409 4.25333 0.386679C4.09103 0.32 3.90898 0.32 3.74667 0.386679C3.66483 0.418409 3.59007 0.465985 3.52667 0.526679L0.860002 3.19335C0.797843 3.25551 0.748535 3.3293 0.714895 3.41051C0.681255 3.49173 0.66394 3.57877 0.66394 3.66668C0.66394 3.75459 0.681255 3.84163 0.714895 3.92285C0.748535 4.00406 0.797843 4.07785 0.860002 4.14001C0.922161 4.20217 0.995954 4.25148 1.07717 4.28512C1.15838 4.31876 1.24543 4.33607 1.33333 4.33607C1.42124 4.33607 1.50829 4.31876 1.5895 4.28512C1.67072 4.25148 1.74451 4.20217 1.80667 4.14001L3.33333 2.60668V11.3933L1.80667 9.86001C1.68113 9.73448 1.51087 9.66395 1.33333 9.66395C1.1558 9.66395 0.985537 9.73448 0.860002 9.86001C0.734466 9.98555 0.66394 10.1558 0.66394 10.3333C0.66394 10.5109 0.734466 10.6811 0.860002 10.8067L3.52667 13.4733C3.59007 13.534 3.66483 13.5816 3.74667 13.6133C3.82647 13.6486 3.91275 13.6668 4 13.6668C4.08725 13.6668 4.17353 13.6486 4.25333 13.6133C4.33517 13.5816 4.40993 13.534 4.47334 13.4733L7.14 10.8067C7.26554 10.6811 7.33606 10.5109 7.33606 10.3333C7.33606 10.1558 7.26554 9.98555 7.14 9.86001C7.07784 9.79785 7.00405 9.74855 6.92283 9.71491C6.84162 9.68127 6.75457 9.66395 6.66667 9.66395C6.48913 9.66395 6.31887 9.73448 6.19334 9.86001Z" fill="#0085FF"/>
</svg>
