<svg width="15" height="14" viewBox="0 0 15 14" fill="none" xmlns="http://www.w3.org/2000/svg">
<path d="M12.4 0H2.6C2.04305 0 1.5089 0.221249 1.11508 0.615076C0.72125 1.0089 0.5 1.54304 0.5 2.1V2.919C0.4999 3.20806 0.559476 3.49403 0.675 3.759V3.801C0.773896 4.02568 0.913975 4.22986 1.088 4.403L5.4 8.687V13.3C5.39976 13.419 5.42985 13.536 5.48741 13.6401C5.54497 13.7442 5.62812 13.8319 5.729 13.895C5.8404 13.964 5.96894 14.0004 6.1 14C6.20958 13.9993 6.31747 13.973 6.415 13.923L9.215 12.523C9.33044 12.4648 9.42752 12.3758 9.49547 12.2659C9.56343 12.1559 9.59961 12.0293 9.6 11.9V8.687L13.884 4.403C14.058 4.22986 14.1981 4.02568 14.297 3.801V3.759C14.4222 3.4961 14.4913 3.21004 14.5 2.919V2.1C14.5 1.54304 14.2788 1.0089 13.8849 0.615076C13.4911 0.221249 12.957 0 12.4 0ZM8.403 7.903C8.33812 7.96841 8.2868 8.04598 8.25196 8.13126C8.21713 8.21655 8.19947 8.30787 8.2 8.4V11.466L6.8 12.166V8.4C6.80053 8.30787 6.78288 8.21655 6.74804 8.13126C6.7132 8.04598 6.66188 7.96841 6.597 7.903L2.887 4.2H12.113L8.403 7.903ZM13.1 2.8H1.9V2.1C1.9 1.91435 1.97375 1.7363 2.10503 1.60502C2.2363 1.47375 2.41435 1.4 2.6 1.4H12.4C12.5857 1.4 12.7637 1.47375 12.895 1.60502C13.0263 1.7363 13.1 1.91435 13.1 2.1V2.8Z" fill="#0085FF"/>
</svg>
