<svg width="19" height="20" viewBox="0 0 19 20" fill="none" xmlns="http://www.w3.org/2000/svg">
<g clip-path="url(#clip0_3498:3446)">
<path d="M11.6126 16.1059C12.2887 16.1092 13.0234 15.063 13.483 14.5632L15.1465 12.4033C15.3232 12.197 15.5721 12.0672 15.8413 12.0407C16.1106 12.0143 16.3796 12.0933 16.5926 12.2614C16.698 12.3492 16.7849 12.4574 16.8481 12.5795C16.9114 12.7017 16.9497 12.8354 16.9608 12.9727C16.9719 13.11 16.9557 13.2482 16.913 13.379C16.8702 13.5099 16.8019 13.6309 16.7121 13.7347L13.2379 17.7459C13.0089 18.0102 12.7264 18.222 12.4093 18.367C12.0922 18.512 11.7479 18.587 11.3997 18.5867H6.52461C6.30257 18.5867 6.08971 18.6753 5.93327 18.8329L5.85474 18.912C5.53174 19.2373 5.00666 19.2406 4.67955 18.9194L2.63619 16.9131C2.30549 16.5884 2.30325 16.0563 2.63122 15.7288L4.3533 14.0093C4.82395 13.5382 5.4168 13.2101 6.06399 13.0625C6.71118 12.9149 7.38656 12.9538 8.01283 13.1747L8.38616 13.3072C8.47566 13.339 8.56992 13.3552 8.66489 13.3552H11.1944C11.3266 13.3552 11.4574 13.3818 11.5792 13.4337C11.7009 13.4855 11.811 13.5615 11.903 13.657C11.9951 13.7526 12.0671 13.8658 12.1148 13.9899C12.1625 14.114 12.185 14.2466 12.1809 14.3796C12.164 14.6412 12.0479 14.8863 11.8566 15.0641C11.6652 15.2418 11.4134 15.3387 11.1531 15.3346H9.73307C9.6315 15.3346 9.53409 15.3752 9.46227 15.4475C9.39046 15.5199 9.35011 15.618 9.35011 15.7203C9.35011 15.8225 9.39046 15.9207 9.46227 15.993C9.53383 16.065 9.63079 16.1056 9.73196 16.1059C9.73269 16.1059 9.73268 16.1059 9.73342 16.1059C9.75704 16.1059 10.9433 16.1028 11.6126 16.1059Z" fill="#0085FF"/>
<path fill-rule="evenodd" clip-rule="evenodd" d="M8.65132 3.5H7.12454C6.77936 3.5 6.49954 3.22018 6.49954 2.875C6.49954 2.52982 6.77936 2.25 7.12454 2.25H8.65132H12.5531C12.8983 2.25 13.1781 2.52982 13.1781 2.875C13.1781 3.22018 12.8983 3.5 12.5531 3.5H10.9994C11.1621 3.7418 11.2863 4.00693 11.3678 4.28572H12.5531C12.8983 4.28572 13.1781 4.56555 13.1781 4.91072C13.1781 5.2559 12.8983 5.53572 12.5531 5.53572H11.4448C11.35 6.11758 11.0749 6.65949 10.6527 7.08172C10.1427 7.59166 9.45826 7.88692 8.73965 7.90934L11.2771 10.2161C11.5325 10.4483 11.5513 10.8436 11.3191 11.099C11.0869 11.3544 10.6917 11.3732 10.4363 11.141L6.70412 7.74818C6.51306 7.57448 6.44848 7.30118 6.54159 7.06034C6.6347 6.8195 6.86633 6.66071 7.12454 6.66071H8.65132C9.07046 6.66071 9.47243 6.49421 9.7688 6.19784C9.9551 6.01154 10.0901 5.78351 10.1647 5.53572H7.12454C6.77936 5.53572 6.49954 5.2559 6.49954 4.91072C6.49954 4.56555 6.77936 4.28572 7.12454 4.28572H10.0174C9.94937 4.16882 9.86608 4.06016 9.7688 3.96288C9.47243 3.6665 9.07046 3.5 8.65132 3.5Z" fill="#0085FF"/>
</g>
<defs>
<clipPath id="clip0_3498:3446">
<rect width="19" height="19" fill="white" transform="translate(0 0.5)"/>
</clipPath>
</defs>
</svg>
