<svg width="22" height="22" viewBox="0 0 22 22" fill="none" xmlns="http://www.w3.org/2000/svg">
<path d="M6.04819 8.94998C6.04728 8.29768 6.17589 7.65165 6.42662 7.04914C6.67734 6.44662 7.04522 5.89952 7.50905 5.43939C7.97288 4.97926 8.52348 4.61519 9.12912 4.36816C9.73476 4.12114 10.3835 3.99605 11.0378 4.0001C13.7683 4.02033 15.9524 6.2827 15.9524 9.01212V9.49998C15.9524 11.9623 16.4692 13.3912 16.9243 14.1721C16.9734 14.2556 16.9995 14.3504 17 14.4471C17.0005 14.5438 16.9754 14.639 16.9273 14.7229C16.8792 14.8069 16.8097 14.8767 16.7258 14.9254C16.642 14.974 16.5467 14.9998 16.4497 15H5.55027C5.45325 14.9998 5.358 14.974 5.27415 14.9253C5.19029 14.8767 5.1208 14.8068 5.07267 14.7229C5.02453 14.6389 4.99947 14.5437 5.00001 14.447C5.00054 14.3503 5.02666 14.2554 5.07572 14.172C5.53114 13.391 6.04819 11.9622 6.04819 9.49998L6.04819 8.94998Z" stroke="#0085FF" stroke-width="2" stroke-linecap="round" stroke-linejoin="round"/>
<path d="M8.75 15.5V16.0625C8.75 16.6592 8.98705 17.2315 9.40901 17.6535C9.83097 18.0754 10.4033 18.3125 11 18.3125C11.5967 18.3125 12.169 18.0754 12.591 17.6535C13.0129 17.2315 13.25 16.6592 13.25 16.0625V15.5" stroke="#0085FF" stroke-width="2" stroke-linecap="round" stroke-linejoin="round"/>
</svg>
