<svg width="16" height="15" viewBox="0 0 16 15" fill="none" xmlns="http://www.w3.org/2000/svg">
<path d="M2.0573 8.64425C1.26817 8.51274 0.666626 7.82678 0.666626 7.00032V6.33366C0.666626 6.14956 0.815864 6.00033 0.999959 6.00033C1.18405 6.00033 1.33329 6.14956 1.33329 6.33366V7.00032C1.33329 7.43733 1.61361 7.80887 2.00425 7.94493C2.00139 7.8536 1.99996 7.76095 1.99996 7.66699C1.99996 5.32239 4.40738 3.33366 8.33329 3.33366C9.25602 3.33366 10.0728 3.42224 10.784 3.60076C11.0935 2.66298 11.9768 2.00033 13 2.00033C13.1841 2.00033 13.3333 2.14956 13.3333 2.33366V5.09038C13.5583 5.36318 13.7443 5.66677 13.8908 6.00033H15C15.1841 6.00033 15.3333 6.14956 15.3333 6.33366V9.00032C15.3333 9.18442 15.1841 9.33366 15 9.33366H13.9699C13.8552 9.9663 13.4138 10.5753 12.6666 11.1645V13.667C12.6666 13.8511 12.5174 14.0003 12.3333 14.0003H10.3333C10.1492 14.0003 9.99996 13.8511 9.99996 13.667V12.667H6.66662V13.667C6.66662 13.8511 6.51739 14.0003 6.33329 14.0003H4.33329C4.1492 14.0003 3.99996 13.8511 3.99996 13.667V11.8669C2.89127 11.2381 2.24464 10.154 2.0573 8.64425ZM11.3545 4.06674C11.3224 4.26659 11.121 4.39192 10.9275 4.33249C10.2089 4.11176 9.34397 4.00033 8.33329 4.00033C4.75044 4.00033 2.66663 5.72173 2.66663 7.66699C2.66663 9.55034 3.27372 10.7645 4.48236 11.3688C4.59529 11.4253 4.66663 11.5407 4.66663 11.667V13.3337H5.99996V12.3337C5.99996 12.1496 6.1492 12.0003 6.33329 12.0003H10.3333C10.5174 12.0003 10.6666 12.1496 10.6666 12.3337V13.3337H12V11.0003C12 10.8954 12.0494 10.7966 12.1333 10.7337C12.9465 10.1238 13.3333 9.54354 13.3333 9.00032C13.3333 8.81623 13.4825 8.66699 13.6666 8.66699H14.6666V6.66699H13.6666C13.5277 6.66699 13.4033 6.5808 13.3545 6.4507C13.2096 6.06429 13.0084 5.72606 12.7502 5.43405C12.6964 5.37312 12.6666 5.2946 12.6666 5.21328V2.70047C11.9967 2.83683 11.4655 3.37619 11.3545 4.06674ZM6.66662 2.33366C6.66662 2.51775 6.51739 2.66699 6.33329 2.66699C6.1492 2.66699 5.99996 2.51775 5.99996 2.33366C5.99996 1.41318 6.74615 0.666992 7.66662 0.666992H7.68315C8.60368 0.666992 9.34992 1.41323 9.34992 2.33376C9.34992 2.51786 9.20068 2.6671 9.01658 2.6671C8.83249 2.6671 8.68325 2.51786 8.68325 2.33376C8.68325 1.78142 8.23549 1.33366 7.68315 1.33366H7.66662C7.11434 1.33366 6.66662 1.78137 6.66662 2.33366ZM11.3333 7.33366C10.9651 7.33366 10.6666 7.03518 10.6666 6.66699C10.6666 6.2988 10.9651 6.00033 11.3333 6.00033C11.7015 6.00033 12 6.2988 12 6.66699C12 7.03518 11.7015 7.33366 11.3333 7.33366Z" stroke="#DD5000" stroke-width="0.75"/>
</svg>
