<svg width="12" height="12" viewBox="0 0 12 12" fill="none" xmlns="http://www.w3.org/2000/svg">
<path d="M11.7933 5.62791C11.7467 5.50799 11.6769 5.39843 11.5879 5.30551L6.69695 0.420651C6.60574 0.329559 6.49747 0.257302 6.3783 0.208003C6.25914 0.158705 6.13142 0.133331 6.00244 0.133331C5.74194 0.133331 5.49212 0.236683 5.30793 0.420651C5.21672 0.511742 5.14437 0.619884 5.09501 0.7389C5.04566 0.857917 5.02025 0.985479 5.02025 1.1143C5.02025 1.37447 5.12373 1.62398 5.30793 1.80795L8.53593 5.02219H1.11152C0.852085 5.02219 0.60328 5.12512 0.419835 5.30834C0.23639 5.49156 0.133331 5.74006 0.133331 5.99916C0.133331 6.25827 0.23639 6.50677 0.419835 6.68999C0.60328 6.87321 0.852085 6.97614 1.11152 6.97614H8.53593L5.30793 10.1904C5.21624 10.2812 5.14347 10.3893 5.09381 10.5083C5.04415 10.6274 5.01858 10.7551 5.01858 10.884C5.01858 11.013 5.04415 11.1407 5.09381 11.2597C5.14347 11.3788 5.21624 11.4869 5.30793 11.5777C5.39886 11.6692 5.50705 11.7419 5.62625 11.7915C5.74545 11.8411 5.8733 11.8667 6.00244 11.8667C6.13157 11.8667 6.25942 11.8411 6.37862 11.7915C6.49782 11.7419 6.60601 11.6692 6.69695 11.5777L11.5879 6.69282C11.6769 6.5999 11.7467 6.49034 11.7933 6.37041C11.8911 6.13256 11.8911 5.86577 11.7933 5.62791Z" fill="#0085FF"/>
</svg>
