<svg width="18" height="10" viewBox="0 0 18 10" fill="none" xmlns="http://www.w3.org/2000/svg">
<path d="M4.2415 6.90833L3.99983 7.15833V0.833333C3.99983 0.61232 3.91203 0.400358 3.75575 0.244078C3.59947 0.0877975 3.38751 0 3.1665 0C2.94548 0 2.73352 0.0877975 2.57724 0.244078C2.42096 0.400358 2.33316 0.61232 2.33316 0.833333V7.15833L2.0915 6.90833C1.93458 6.75141 1.72175 6.66326 1.49983 6.66326C1.27791 6.66326 1.06508 6.75141 0.908162 6.90833C0.751242 7.06525 0.663086 7.27808 0.663086 7.5C0.663086 7.72192 0.751242 7.93475 0.908162 8.09167L2.57483 9.75833C2.65408 9.8342 2.74754 9.89367 2.84983 9.93333C2.94958 9.97742 3.05744 10.0002 3.1665 10.0002C3.27555 10.0002 3.38341 9.97742 3.48316 9.93333C3.58545 9.89367 3.67891 9.8342 3.75816 9.75833L5.42483 8.09167C5.50253 8.01397 5.56416 7.92173 5.60621 7.82021C5.64826 7.71869 5.6699 7.60988 5.6699 7.5C5.6699 7.39012 5.64826 7.28131 5.60621 7.17979C5.56416 7.07827 5.50253 6.98603 5.42483 6.90833C5.34713 6.83064 5.25489 6.769 5.15337 6.72695C5.05185 6.6849 4.94304 6.66326 4.83316 6.66326C4.72328 6.66326 4.61447 6.6849 4.51295 6.72695C4.41144 6.769 4.31919 6.83064 4.2415 6.90833ZM8.16649 1.66667H16.4998C16.7208 1.66667 16.9328 1.57887 17.0891 1.42259C17.2454 1.26631 17.3332 1.05435 17.3332 0.833333C17.3332 0.61232 17.2454 0.400358 17.0891 0.244078C16.9328 0.0877975 16.7208 0 16.4998 0H8.16649C7.94548 0 7.73352 0.0877975 7.57724 0.244078C7.42096 0.400358 7.33316 0.61232 7.33316 0.833333C7.33316 1.05435 7.42096 1.26631 7.57724 1.42259C7.73352 1.57887 7.94548 1.66667 8.16649 1.66667ZM16.4998 4.16667H8.16649C7.94548 4.16667 7.73352 4.25446 7.57724 4.41074C7.42096 4.56703 7.33316 4.77899 7.33316 5C7.33316 5.22101 7.42096 5.43298 7.57724 5.58926C7.73352 5.74554 7.94548 5.83333 8.16649 5.83333H16.4998C16.7208 5.83333 16.9328 5.74554 17.0891 5.58926C17.2454 5.43298 17.3332 5.22101 17.3332 5C17.3332 4.77899 17.2454 4.56703 17.0891 4.41074C16.9328 4.25446 16.7208 4.16667 16.4998 4.16667ZM16.4998 8.33333H8.16649C7.94548 8.33333 7.73352 8.42113 7.57724 8.57741C7.42096 8.73369 7.33316 8.94565 7.33316 9.16667C7.33316 9.38768 7.42096 9.59964 7.57724 9.75592C7.73352 9.9122 7.94548 10 8.16649 10H16.4998C16.7208 10 16.9328 9.9122 17.0891 9.75592C17.2454 9.59964 17.3332 9.38768 17.3332 9.16667C17.3332 8.94565 17.2454 8.73369 17.0891 8.57741C16.9328 8.42113 16.7208 8.33333 16.4998 8.33333Z" fill="#0085FF"/>
</svg>
