<svg width="44" height="44" viewBox="0 0 44 44" fill="none" xmlns="http://www.w3.org/2000/svg">
<path d="M22 36C29.732 36 36 29.732 36 22C36 14.268 29.732 8 22 8C14.268 8 8 14.268 8 22C8 29.732 14.268 36 22 36Z" fill="#25A8A0" fill-opacity="0.24"/>
<path fill-rule="evenodd" clip-rule="evenodd" d="M22.0002 14.3854C22.5525 14.3854 23.0002 14.8331 23.0002 15.3854V16.2752H24.835C25.3873 16.2752 25.835 16.7229 25.835 17.2752C25.835 17.8275 25.3873 18.2752 24.835 18.2752H22.0104C22.007 18.2753 22.0036 18.2753 22.0002 18.2753C21.9968 18.2753 21.9933 18.2753 21.9899 18.2752H20.5827C20.2214 18.2752 19.8749 18.4188 19.6194 18.6743C19.3639 18.9298 19.2204 19.2763 19.2204 19.6376C19.2204 19.9989 19.3639 20.3455 19.6194 20.601C19.8749 20.8565 20.2214 21 20.5827 21H23.4176C24.3094 21 25.1646 21.3542 25.7952 21.9848C26.4257 22.6154 26.78 23.4706 26.78 24.3624C26.78 25.2541 26.4257 26.1094 25.7952 26.7399C25.1646 27.3705 24.3094 27.7247 23.4176 27.7247H23.0002V28.6147C23.0002 29.167 22.5525 29.6147 22.0002 29.6147C21.4479 29.6147 21.0002 29.167 21.0002 28.6147V27.7247H19.1653C18.613 27.7247 18.1653 27.277 18.1653 26.7247C18.1653 26.1725 18.613 25.7247 19.1653 25.7247H23.4176C23.7789 25.7247 24.1255 25.5812 24.3809 25.3257C24.6364 25.0702 24.78 24.7237 24.78 24.3624C24.78 24.001 24.6364 23.6545 24.3809 23.399C24.1255 23.1435 23.7789 23 23.4176 23H20.5827C19.691 23 18.8358 22.6457 18.2052 22.0152C17.5746 21.3846 17.2204 20.5294 17.2204 19.6376C17.2204 18.7458 17.5746 17.8906 18.2052 17.26C18.8358 16.6295 19.691 16.2752 20.5827 16.2752H21.0002V15.3854C21.0002 14.8331 21.4479 14.3854 22.0002 14.3854Z" fill="#25A8A0"/>
</svg>
